<?xml version="1.0" encoding="utf-8"?>
<!-- Generator: Adobe Illustrator 24.2.3, SVG Export Plug-In . SVG Version: 6.00 Build 0)  -->
<svg version="1.1" id="Layer_1" xmlns="http://www.w3.org/2000/svg" xmlns:xlink="http://www.w3.org/1999/xlink" x="0px" y="0px"
	 viewBox="0 0 42.5 42.5" style="enable-background:new 0 0 42.5 42.5;" xml:space="preserve" width="42.5" height="42.5">
<style type="text/css">
	.st0{opacity:0.1;}
	.st1{clip-path:url(#SVGID_2_);}
	.st2{fill:#157CBF;}
</style>
<g class="st0">
	<defs>
		
			<rect id="SVGID_1_" transform="matrix(-1 -1.224647e-16 1.224647e-16 -1 42.5197 42.5197)" class="st0" width="42.5" height="42.5"/>
	</defs>
	<clipPath id="SVGID_2_">
		<use xlink:href="#SVGID_1_"  style="overflow:visible;"/>
	</clipPath>
	<g class="st1">
		<path class="st2" d="M22.1,38.3c2.1-0.4,4.1-0.9,6.2-1.2c4.8-0.6,10.7,0.2,15.1,1.9c0.6,0.2,1.1,0.5,0.8,1.2
			c-0.3,0.8-0.7,0.5-1.4,0.4c-2.5-0.6-6.3-1.5-8.8-1.9c-4.2-0.6-8.2,0.2-12.1,1.6c-3.9,1.5-8,2.2-12.2,2.1
			c-3.3-0.1-7.4-0.9-10.5-2.1c-0.6-0.2-1.2-0.5-0.9-1.2c0.3-0.8,0.9-0.6,1.6-0.4c5.3,2,13.5,2.6,19.1,0.9c0.9-0.3,1.2-0.7,1.2-1.6
			c0-3.8,0-7.6,0-11.4c0-0.3-0.1-0.7-0.1-1.1c-1.8,0.4-3.5,0.8-5.3,1.1c-5.1,0.8-10.9-0.1-15.6-1.9c-0.6-0.2-1.1-0.5-0.9-1.2
			c0.3-0.7,0.8-0.7,1.5-0.4c7,2.6,14.8,2.7,21.7,0c6.6-2.5,14.5-2.1,21.2,0.1c0.2,0.1,0.4,0.1,0.5,0.2c0.3,0.4,0.9,0.8,0.8,1.1
			c-0.1,0.7-0.7,0.7-1.4,0.5c-1.5-0.5-4.1-1.3-5.6-1.6c-4.8-1-9.6-0.6-14.2,1c-0.4,0.1-0.9,0.7-0.9,1c-0.1,4.2,0,8.4,0,12.5
			C22.1,37.9,22.1,38.1,22.1,38.3z"/>
		<path class="st2" d="M44.4,8.3c0,0.9-0.4,1.1-1.2,0.9c-2-0.5-5.1-1.4-7.1-1.8c-4.7-0.9-9.4-0.3-13.9,1.4c-4,1.5-8.1,2.4-12.5,2.3
			C6.4,10.9,2.4,10-0.6,8.8c-0.6-0.2-1.2-0.5-0.9-1.3c0.3-0.8,1-0.5,1.6-0.3c6.6,2.4,14.2,2.7,20.7,0.2c3.5-1.4,7.2-2.1,10.9-2.1
			c3.6,0,8.2,0.9,11.5,2.2C43.8,7.6,44.1,8.1,44.4,8.3z"/>
		<path class="st2" d="M10.9,21.5c-3.7,0.1-7.9-0.9-11.2-2.1c-0.2-0.1-0.4-0.1-0.5-0.2c-0.3-0.4-0.8-0.8-0.7-1.1
			c0.1-0.7,0.8-0.7,1.3-0.5C1.2,18,3.6,18.9,5,19.2c5.3,1.2,10.5,0.7,15.5-1.3c4-1.5,8.1-2.4,12.4-2.2c3.2,0.1,7.4,1,10.4,2.2
			c0.1,0.1,0.2,0.1,0.3,0.2c0.2,0.4,0.4,0.8,0.6,1.2c-0.4,0.1-0.6,0.4-1,0.4c-1.8-0.4-5-1.4-6.9-1.7c-4.8-0.9-9.5-0.4-14,1.3
			C18.6,20.6,14.8,21.7,10.9,21.5z"/>
		<path class="st2" d="M43.5,4.1C43,4,42.9,3.9,42.6,3.8c-3.2-1.2-7.8-2.1-11.2-2c-3.6,0-7,0.9-10.3,2.1C14.3,6.4,6.5,6.1-0.4,3.6
			C-0.6,3.5-1,3.5-1.2,3.3c-0.2-0.3-0.5-0.7-0.4-1C-1.5,2.1-1,1.9-0.6,1.8C-0.4,1.7-0.2,1.8,0,1.9c6.8,2.5,14.5,2.7,21.3,0
			C28-0.7,35.9-0.4,42.7,2c0.4,0.1,0.8,0.2,1.1,0.5c0.3,0.2,0.5,0.7,0.4,1C44.2,3.7,43.7,3.9,43.5,4.1z"/>
		<path class="st2" d="M31.1,12.3c-3.1-0.1-6.6,0.9-10.1,2.1c-6.7,2.5-14.4,2.1-21.2-0.3c-0.2-0.1-0.5-0.1-0.6-0.2
			c-0.3-0.3-0.7-0.8-0.7-1.1c0.1-0.6,0.7-0.7,1.3-0.5c2,0.6,4.9,1.5,6.9,1.9c4.6,0.8,9.2,0.3,13.5-1.4c4.4-1.7,9-2.6,13.8-2.2
			c2.9,0.2,6.8,1.1,9.5,2.2c0.6,0.2,1,0.7,0.8,1.3c-0.3,0.7-0.7,0.6-1.3,0.3C39.7,13.2,35.1,12.3,31.1,12.3z"/>
		<path class="st2" d="M24.5,29c-0.4-1.7-0.3-1.7,1.2-2c5.5-1.2,12.2-0.4,17.5,1.5c0.2,0.1,0.3,0.1,0.4,0.2c0.2,0.3,0.4,0.7,0.6,1.1
			c-0.4,0.2-0.9,0.6-1.2,0.4c-3-1.1-7.2-2.1-10.4-2.1c-2.2,0-4.5,0.4-6.7,0.6C25.4,28.7,25,28.9,24.5,29z"/>
		<path class="st2" d="M24.5,34.2c-0.4-1.5-0.3-1.7,1.1-2c5.5-1.2,12.1-0.4,17.4,1.4c0.2,0.1,0.5,0.1,0.6,0.3
			c0.3,0.3,0.4,0.7,0.6,1.1c-0.4,0.2-0.9,0.5-1.2,0.4c-1.7-0.4-4.5-1.3-6.3-1.7c-3.8-0.8-7.7-0.6-11.5,0.3
			C25,34.1,24.8,34.1,24.5,34.2z"/>
		<path class="st2" d="M17.9,29.5c0.3,1.6,0.3,1.7-1.2,2c-5.6,1.1-12,0.4-17.4-1.7c-0.4-0.2-0.9-0.8-0.8-1.1
			c0.1-0.7,0.7-0.8,1.4-0.5c5.5,2.1,12,2.7,17.7,1.3C17.6,29.4,17.8,29.4,17.9,29.5z"/>
		<path class="st2" d="M18,34.7c0.1,1.8,0.1,1.8-1.5,2.1c-5.4,1-11.7,0.3-16.9-1.6c-0.3-0.1-0.7-0.2-0.9-0.4
			c-0.2-0.2-0.4-0.7-0.3-0.9c0.1-0.3,0.5-0.5,0.8-0.5c0.4,0,0.8,0.1,1.2,0.3c3.2,1.1,7.4,2.1,10.8,2c1.9-0.1,3.7-0.5,5.6-0.7
			C17.2,34.8,17.6,34.8,18,34.7z"/>
	</g>
</g>
</svg>
