<svg width="140" height="92" viewBox="0 0 140 92" fill="none" xmlns="http://www.w3.org/2000/svg">
<path d="M41.1185 22.719C41.3078 22.6469 41.4972 22.5747 41.6866 22.5026C41.876 22.436 42.0711 22.3694 42.2662 22.3084C42.4613 22.2473 42.6565 22.1918 42.8516 22.1419C43.0467 22.092 43.2475 22.042 43.4484 22.0032C43.6493 21.9588 43.8501 21.9255 44.051 21.8922C44.2518 21.8589 44.4527 21.8367 44.6536 21.8145C44.8544 21.7923 45.061 21.7812 45.2619 21.7701C45.3652 21.7645 45.4627 21.7645 45.566 21.7645C45.6751 21.7645 45.7841 21.7645 45.8989 21.7701C46.0079 21.7756 46.1169 21.7812 46.2317 21.7867C46.3408 21.7923 46.4498 21.8034 46.5646 21.8145C46.6736 21.8256 46.7826 21.8422 46.8974 21.8589C47.0696 21.8866 47.2418 21.9144 47.4082 21.9532C47.5746 21.9865 47.7468 22.0309 47.9132 22.0753C48.0796 22.1197 48.246 22.1696 48.4067 22.2196C48.5674 22.2695 48.7338 22.325 48.8945 22.3805C49.0552 22.436 49.2159 22.4971 49.3766 22.5581C49.5373 22.6191 49.6922 22.6857 49.8529 22.7468C50.1685 22.8744 50.4784 23.0131 50.7883 23.1463C51.0982 23.2795 51.4081 23.4182 51.718 23.5514C51.873 23.618 52.0279 23.6846 52.1829 23.7457C52.3378 23.8067 52.4927 23.8677 52.6477 23.9288C52.8026 23.9898 52.9633 24.0453 53.1183 24.1008C53.2732 24.1563 53.4339 24.2063 53.5946 24.2506C53.7553 24.3006 53.916 24.3394 54.0709 24.3838C54.2316 24.4227 54.3923 24.4615 54.553 24.4893C54.7194 24.5226 54.8858 24.5448 55.0465 24.567C55.2129 24.5892 55.3794 24.6058 55.5458 24.6169C55.7122 24.628 55.8786 24.6391 56.0451 24.6446C56.2115 24.6502 56.3779 24.6502 56.5443 24.6446C56.7108 24.6391 56.8772 24.6335 57.0436 24.6225C57.21 24.6114 57.3765 24.6003 57.5486 24.5836C57.7151 24.567 57.8872 24.5503 58.0536 24.5281C58.2201 24.5059 58.3922 24.4837 58.5587 24.456C58.7251 24.4282 58.8972 24.4005 59.0637 24.3727C59.2301 24.3394 59.4023 24.3117 59.5687 24.2728C59.9073 24.2063 60.2401 24.1286 60.5787 24.0509C60.9173 23.9732 61.2501 23.8899 61.5887 23.8067C61.9216 23.7235 62.2602 23.6402 62.593 23.557C63.1095 23.4293 63.626 23.3128 64.1482 23.1963C64.4065 23.1408 64.6705 23.0853 64.9287 23.0298C65.187 22.9743 65.4509 22.9244 65.7092 22.8744C65.9732 22.8245 66.2314 22.7745 66.4954 22.7246C66.7594 22.6746 67.0176 22.6302 67.2816 22.5858C67.4308 22.5636 67.58 22.5414 67.7235 22.5137C67.6317 22.3139 67.5341 22.1197 67.4251 21.9255C67.0349 21.2263 66.5413 20.5714 65.8986 20.0775C65.1009 19.4616 64.1195 19.1119 63.1669 18.7568C62.2257 18.4072 61.2731 18.0298 60.5271 17.375C60.5156 17.375 60.5098 17.3806 60.4984 17.3806C60.3205 17.4194 60.1368 17.4582 59.9589 17.4971C59.7753 17.5359 59.5974 17.5692 59.4137 17.597C59.2301 17.6303 59.0465 17.658 58.8628 17.6802C58.6792 17.708 58.4955 17.7302 58.3119 17.7468C58.1282 17.7635 57.9446 17.7801 57.7552 17.7912C57.5716 17.8023 57.3822 17.8079 57.1986 17.8079C57.0149 17.8079 56.8255 17.8023 56.6419 17.7968C56.4583 17.7857 56.2689 17.7746 56.0852 17.7524C55.9303 17.7357 55.7753 17.7135 55.6204 17.6858C55.4654 17.658 55.3162 17.6303 55.1613 17.597C55.0121 17.5637 54.8629 17.5304 54.7137 17.4915C54.5645 17.4527 54.4152 17.4083 54.2718 17.3639C54.1226 17.3195 53.9791 17.2696 53.8356 17.2196C53.6922 17.1697 53.5487 17.1142 53.4052 17.0587C53.2617 17.0032 53.1183 16.9422 52.9805 16.8867C52.8371 16.8256 52.6993 16.7646 52.5559 16.698C52.4181 16.6314 52.2747 16.5648 52.1369 16.4982C51.9992 16.4316 51.8615 16.3595 51.7237 16.2929C51.4483 16.1541 51.1786 16.0043 50.9088 15.8545C50.6391 15.7047 50.3694 15.5548 50.1054 15.3994C49.8414 15.2441 49.5774 15.0942 49.3135 14.9388C49.0667 14.7946 48.8199 14.6503 48.5674 14.5115C48.3149 14.3728 48.0624 14.2341 47.8099 14.1009C47.5574 13.9677 47.2991 13.8345 47.0466 13.7124C46.9204 13.6514 46.7884 13.5904 46.6621 13.5293C46.5301 13.4683 46.4039 13.4128 46.2719 13.3573C46.1399 13.3018 46.0079 13.2463 45.8759 13.1963C45.7439 13.1464 45.6119 13.0965 45.4799 13.0465C45.3479 12.9966 45.216 12.9522 45.0782 12.9133C44.9462 12.8689 44.8085 12.8301 44.6765 12.7912C44.6536 12.7857 44.6363 12.7801 44.6134 12.7746C42.3925 15.8822 40.7799 19.4172 39.9305 23.2296C40.1429 23.1297 40.3552 23.0298 40.5675 22.9355C40.7454 22.8689 40.9291 22.7912 41.1185 22.719Z" fill="#267434"/>
<path d="M40.3724 29.1452C40.5388 29.1452 40.711 29.1507 40.8774 29.1618C41.0439 29.1729 41.2103 29.184 41.3767 29.2007C41.5431 29.2173 41.7096 29.2395 41.876 29.2617C42.0424 29.2839 42.2088 29.3117 42.3695 29.3394C42.5359 29.3671 42.6966 29.4004 42.8631 29.4337C43.0237 29.467 43.1902 29.5003 43.3509 29.5336C43.678 29.6058 43.9993 29.6779 44.3207 29.7556C44.6421 29.8333 44.9635 29.9054 45.2848 29.9776C45.4455 30.0109 45.6062 30.0497 45.7669 30.083C45.9276 30.1163 46.0883 30.1496 46.2489 30.1774C46.4096 30.2051 46.5703 30.2328 46.731 30.255C46.8917 30.2772 47.0524 30.2994 47.2131 30.3161C47.3737 30.3327 47.5344 30.3494 47.6951 30.3605C47.8558 30.3716 48.0165 30.3771 48.1772 30.3827C48.3034 30.3827 48.4239 30.3827 48.5445 30.3827C48.665 30.3771 48.7912 30.3716 48.9117 30.366C49.0323 30.3605 49.1585 30.3494 49.279 30.3383C49.3995 30.3272 49.5258 30.3105 49.6463 30.2939C49.7668 30.2772 49.8931 30.2606 50.0136 30.2384C50.1341 30.2162 50.2604 30.1996 50.3809 30.1718C50.6219 30.1274 50.8687 30.0719 51.1097 30.0164C51.3507 29.9609 51.5975 29.8943 51.8385 29.8277C52.0796 29.7612 52.3206 29.689 52.5616 29.6169C52.8026 29.5447 53.0437 29.467 53.2847 29.3893C53.5257 29.3117 53.7668 29.234 54.0021 29.1563C54.421 29.0231 54.8399 28.8844 55.2589 28.7567C55.4712 28.6901 55.6835 28.6291 55.8959 28.568C56.1082 28.507 56.3205 28.446 56.5329 28.3905C56.7452 28.335 56.9633 28.2795 57.1756 28.2351C57.3937 28.1851 57.606 28.1407 57.8241 28.1019C58.0422 28.0631 58.2602 28.0242 58.4783 27.9909C58.6964 27.9576 58.9202 27.9354 59.144 27.9132C59.3277 27.8966 59.5113 27.8855 59.6892 27.8744C59.8728 27.8688 60.0565 27.8633 60.2344 27.8577C60.418 27.8577 60.5959 27.8577 60.7796 27.8633C60.9632 27.8688 61.1411 27.8744 61.3248 27.8855C61.5084 27.8966 61.6863 27.9077 61.8699 27.9243C62.0478 27.941 62.2315 27.9576 62.4094 27.9743C62.7709 28.0131 63.1325 28.0575 63.4883 28.1074C63.8498 28.1574 64.2056 28.2073 64.5672 28.2628C64.923 28.3183 65.2845 28.3683 65.6403 28.4238C65.9961 28.4737 66.3577 28.5236 66.7135 28.568C66.8914 28.5902 67.0693 28.6124 67.2472 28.6291C67.4251 28.6457 67.603 28.6624 67.7809 28.679C68.0391 28.7012 68.2974 28.7179 68.5556 28.729C68.8139 28.7401 69.0721 28.7456 69.3304 28.7512C69.5886 28.7512 69.8469 28.7512 70.1051 28.7456C70.2486 28.7401 70.3978 28.7345 70.5413 28.729C70.5413 28.729 70.5413 28.729 70.5355 28.7234C69.4279 27.547 68.9229 25.9765 68.3835 24.4726C68.2343 24.0509 68.0736 23.6347 67.9014 23.224C67.7235 23.2518 67.5399 23.2795 67.362 23.3073C67.1037 23.3517 66.8397 23.3961 66.5815 23.4404C66.3232 23.4848 66.0593 23.5348 65.801 23.5847C65.5428 23.6347 65.2845 23.6902 65.0205 23.7401C64.7623 23.7956 64.504 23.8511 64.2458 23.9066C63.7293 24.0231 63.2128 24.1397 62.7021 24.2673C62.3692 24.3505 62.0364 24.4338 61.6978 24.517C61.3592 24.6003 61.0206 24.6835 60.682 24.7612C60.3434 24.8389 59.9991 24.9166 59.6605 24.9887C59.4883 25.022 59.3162 25.0553 59.144 25.0886C58.9719 25.1219 58.7997 25.1496 58.6275 25.1774C58.4554 25.2051 58.2832 25.2273 58.111 25.2495C57.9389 25.2717 57.7667 25.2884 57.5945 25.305C57.4224 25.3217 57.2502 25.3328 57.078 25.3439C56.9059 25.355 56.7337 25.3605 56.5616 25.3661C56.3894 25.3716 56.2172 25.3661 56.0451 25.3661C55.8729 25.3605 55.7007 25.355 55.5286 25.3383C55.3564 25.3272 55.1842 25.305 55.0121 25.2828C54.8399 25.2606 54.6678 25.2329 54.4956 25.1996C54.3234 25.1663 54.157 25.133 53.9906 25.0886C53.8242 25.0498 53.6577 24.9998 53.4913 24.9554C53.3249 24.9055 53.1642 24.8555 53.0035 24.8C52.8428 24.7445 52.6821 24.689 52.5214 24.628C52.3608 24.567 52.2001 24.5059 52.0451 24.4393C51.8844 24.3727 51.7295 24.3117 51.5745 24.2451C51.2589 24.1119 50.949 23.9732 50.6449 23.84C50.335 23.7068 50.0251 23.5681 49.7152 23.4404C49.5602 23.3739 49.4053 23.3128 49.2503 23.2518C49.0954 23.1907 48.9347 23.1352 48.7798 23.0742C48.6248 23.0187 48.4641 22.9632 48.3092 22.9133C48.1485 22.8633 47.9935 22.8189 47.8329 22.7745C47.6722 22.7301 47.5115 22.6913 47.3508 22.658C47.1901 22.6247 47.0294 22.5969 46.863 22.5692C46.7367 22.5525 46.6047 22.5359 46.4785 22.5193C46.3522 22.5026 46.2202 22.4971 46.0883 22.4915C45.9563 22.486 45.83 22.4804 45.698 22.4804C45.566 22.4804 45.4398 22.4804 45.3078 22.486C45.1758 22.4915 45.0495 22.4971 44.9175 22.5082C44.7855 22.5193 44.6593 22.5304 44.5273 22.547C44.3953 22.5636 44.2691 22.5803 44.1371 22.6025C44.0108 22.6247 43.8788 22.6469 43.7526 22.6691C43.6263 22.6913 43.4943 22.719 43.3681 22.7523C43.2418 22.7801 43.1098 22.8134 42.9836 22.8467C42.8573 22.88 42.7311 22.9133 42.6048 22.9521C42.4786 22.9909 42.3523 23.0298 42.226 23.0686C42.0998 23.1075 41.9735 23.1519 41.853 23.1963C41.7268 23.2407 41.6063 23.2851 41.48 23.335C41.2332 23.4293 40.9922 23.5292 40.7512 23.6347C40.5102 23.7401 40.2749 23.8511 40.0396 23.9621C39.9305 24.012 39.8272 24.0675 39.7182 24.1175C39.4026 25.7656 39.2304 27.4637 39.2189 29.1951C39.2189 29.1951 39.2189 29.1951 39.2247 29.1951C39.414 29.1729 39.5977 29.1618 39.7871 29.1507C39.9994 29.1507 40.183 29.1452 40.3724 29.1452Z" fill="#8DC63F"/>
<path d="M41.7612 38.3738C41.9735 38.3294 42.1859 38.2905 42.3982 38.2572C42.6106 38.2239 42.8229 38.1906 43.041 38.1629C43.2533 38.1352 43.4714 38.113 43.6837 38.0908C43.9018 38.0686 44.1141 38.0575 44.3322 38.0464C44.5503 38.0353 44.7683 38.0297 44.9807 38.0297C45.1987 38.0297 45.4168 38.0353 45.6349 38.0408C45.8702 38.0519 46.1055 38.0686 46.3408 38.0908C46.5761 38.113 46.8056 38.1407 47.0409 38.174C47.2705 38.2073 47.5057 38.2406 47.7353 38.2794C47.9648 38.3183 48.1944 38.3571 48.424 38.4015C48.8831 38.4903 49.3364 38.5846 49.7898 38.679C50.2432 38.7733 50.6965 38.8677 51.1499 38.9509C51.3737 38.9953 51.6032 39.0341 51.8328 39.0674C52.0623 39.1063 52.2919 39.134 52.5157 39.1673C52.7395 39.2006 52.9748 39.2173 53.2044 39.2395C53.4339 39.2561 53.6635 39.2728 53.8873 39.2783C54.0021 39.2839 54.1168 39.2839 54.2316 39.2839C54.3464 39.2839 54.4612 39.2839 54.5702 39.2783C54.685 39.2728 54.794 39.2672 54.9088 39.2617C55.0236 39.2561 55.1326 39.245 55.2474 39.2339C55.3622 39.2228 55.4712 39.2062 55.5802 39.1895C55.6893 39.1729 55.804 39.1562 55.9131 39.134C56.0221 39.1118 56.1312 39.0896 56.2402 39.0619C56.3492 39.0341 56.4583 39.0064 56.5673 38.9787C56.6763 38.9454 56.7911 38.9121 56.9002 38.8788C57.0092 38.8399 57.1182 38.8011 57.2273 38.7622C57.3363 38.7234 57.4396 38.679 57.5486 38.6346C57.6577 38.5902 57.761 38.5403 57.8643 38.4959C58.0766 38.396 58.2832 38.2961 58.4898 38.1851C58.6964 38.0797 58.903 37.9631 59.1096 37.8521C59.5228 37.6246 59.936 37.386 60.3549 37.1585C60.5672 37.0475 60.7796 36.9309 60.9919 36.8255C61.1009 36.77 61.21 36.7201 61.319 36.6701C61.4281 36.6202 61.5371 36.5702 61.6461 36.5203C61.7724 36.4648 61.8929 36.4149 62.0192 36.3649C62.1454 36.315 62.2717 36.2706 62.4037 36.2262C62.5299 36.1818 62.6619 36.1429 62.7939 36.1041C62.9259 36.0652 63.0521 36.0264 63.1841 35.9931C63.3161 35.9598 63.4481 35.9265 63.5801 35.8988C63.7121 35.871 63.8498 35.8433 63.9818 35.8266C64.1138 35.8044 64.2515 35.7878 64.3893 35.7711C64.527 35.7545 64.659 35.7434 64.7967 35.7323C64.9345 35.7212 65.0722 35.7156 65.2042 35.7156C65.3419 35.7156 65.4796 35.7156 65.6174 35.7212C65.7551 35.7267 65.8928 35.7323 66.0248 35.7489C66.1626 35.76 66.3003 35.7767 66.4323 35.7933C66.57 35.81 66.702 35.8377 66.8397 35.8599C66.9717 35.8877 67.1095 35.9154 67.2415 35.9543C67.3734 35.9876 67.5054 36.0264 67.6374 36.0708C67.7694 36.1152 67.8957 36.1596 68.0219 36.2095C68.1482 36.2595 68.2744 36.315 68.4007 36.3705C68.5269 36.426 68.6475 36.487 68.768 36.5536C68.8885 36.6146 69.009 36.6812 69.1238 36.7478C69.2443 36.8144 69.3591 36.8865 69.4738 36.9531C69.7034 37.0919 69.933 37.2417 70.1568 37.386C70.3806 37.5303 70.6044 37.6746 70.8282 37.8188C70.943 37.891 71.052 37.9576 71.1668 38.0242C71.2816 38.0908 71.3963 38.1574 71.5111 38.2184C71.6259 38.2794 71.7464 38.3405 71.8612 38.4015C71.9817 38.457 72.0965 38.5125 72.217 38.568C72.3375 38.6179 72.458 38.6679 72.5785 38.7123C72.6991 38.7567 72.8253 38.7955 72.9458 38.8288C73.0663 38.8621 73.1926 38.8954 73.3188 38.9176C73.4451 38.9398 73.5713 38.962 73.6976 38.9731C73.7722 38.9787 73.8468 38.9842 73.9214 38.9898C73.996 38.9953 74.0706 38.9953 74.1452 38.9953C74.2198 38.9953 74.2944 38.9898 74.369 38.9898C74.4436 38.9842 74.5182 38.9787 74.5929 38.9731C74.6675 38.9676 74.7421 38.9565 74.8167 38.9454C74.8913 38.9343 74.9659 38.9176 75.0405 38.9065C75.1897 38.8788 75.3389 38.8399 75.4824 38.7955C75.6316 38.7511 75.775 38.7067 75.9185 38.6512C76.062 38.5958 76.2055 38.5403 76.3489 38.4792C76.4924 38.4182 76.6301 38.3516 76.7679 38.2794C76.9056 38.2073 77.0433 38.1352 77.1753 38.0575C77.3073 37.9798 77.4393 37.9021 77.5713 37.8188C77.7033 37.7356 77.8295 37.6524 77.9615 37.5636C78.2198 37.3915 78.4723 37.2084 78.7248 37.0253C78.9773 36.8422 79.2298 36.6535 79.488 36.4704C79.6143 36.376 79.7463 36.2872 79.8725 36.1984C80.0045 36.1096 80.1308 36.0209 80.2628 35.9321C80.4292 35.8211 80.6014 35.7101 80.7735 35.6102C80.9457 35.5048 81.1179 35.4049 81.2958 35.305C81.4737 35.2051 81.6516 35.1108 81.8295 35.022C82.0074 34.9276 82.191 34.8388 82.3747 34.7556C82.5583 34.6724 82.7419 34.5891 82.9313 34.5114C83.0289 34.467 83.1322 34.4337 83.2297 34.3893C82.6846 33.9398 82.1221 33.5236 81.4966 33.1907C79.7692 32.2528 77.7607 31.9865 75.8324 31.5814C74.8683 31.3816 73.9042 31.1374 72.9975 30.7601C72.2572 30.4493 71.557 30.0442 70.9602 29.5226C70.9545 29.5226 70.943 29.5226 70.9372 29.5226C70.6733 29.5392 70.4093 29.5503 70.1453 29.5559C69.8813 29.5614 69.6173 29.567 69.3533 29.5614C69.0893 29.5614 68.8254 29.5503 68.5614 29.5392C68.2974 29.5281 68.0334 29.5115 67.7694 29.4893C67.5858 29.4726 67.4079 29.456 67.2242 29.4393C67.0406 29.4227 66.8627 29.4005 66.6791 29.3783C66.3175 29.3339 65.956 29.2839 65.6002 29.234C65.2386 29.1841 64.8828 29.1286 64.5213 29.0731C64.1655 29.0176 63.8039 28.9676 63.4481 28.9177C63.0923 28.8677 62.7365 28.8233 62.3807 28.7845C62.2028 28.7679 62.0249 28.7457 61.847 28.7346C61.6691 28.7179 61.4912 28.7068 61.3133 28.6957C61.1354 28.6846 60.9575 28.6791 60.7796 28.6735C60.6017 28.668 60.4238 28.668 60.2459 28.668C60.068 28.668 59.8901 28.6735 59.7179 28.6791C59.54 28.6846 59.3621 28.7013 59.1899 28.7124C58.9776 28.729 58.7595 28.7568 58.5472 28.7845C58.3348 28.8123 58.1225 28.8511 57.9102 28.8899C57.6978 28.9288 57.4855 28.9732 57.2732 29.0231C57.0608 29.0731 56.8485 29.123 56.6419 29.1785C56.4296 29.234 56.223 29.2895 56.0106 29.3505C55.7983 29.4116 55.5917 29.4726 55.3851 29.5392C54.9662 29.6669 54.553 29.8 54.1341 29.9388C53.893 30.0165 53.652 30.0942 53.411 30.1718C53.1699 30.2495 52.9289 30.3272 52.6821 30.3994C52.4411 30.4715 52.1943 30.5436 51.9476 30.6158C51.7008 30.6824 51.454 30.749 51.2073 30.81C50.9605 30.8711 50.708 30.921 50.4612 30.9709C50.335 30.9931 50.2087 31.0153 50.0825 31.0375C49.9562 31.0597 49.83 31.0764 49.7037 31.093C49.5774 31.1097 49.4512 31.1263 49.3249 31.1374C49.1987 31.1485 49.0724 31.1596 48.9404 31.1707C48.8142 31.1763 48.6822 31.1874 48.5559 31.1874C48.4297 31.1929 48.2977 31.1929 48.1714 31.1874C48.005 31.1874 47.8329 31.1763 47.6664 31.1652C47.5 31.1541 47.3336 31.1374 47.1672 31.1208C47.0007 31.1041 46.8343 31.0819 46.6679 31.0597C46.5015 31.0375 46.3408 31.0098 46.1743 30.982C46.0079 30.9543 45.8472 30.921 45.6808 30.8877C45.5201 30.8544 45.3537 30.8211 45.193 30.7823C44.8659 30.7101 44.5445 30.638 44.2232 30.5603C43.9018 30.4826 43.5804 30.4105 43.259 30.3383C43.0983 30.305 42.9377 30.2662 42.777 30.2384C42.6163 30.2051 42.4556 30.1774 42.2949 30.1441C42.1342 30.1163 41.9735 30.0886 41.8129 30.0664C41.6522 30.0442 41.4915 30.022 41.3308 30.0054C41.1701 29.9887 41.0094 29.9721 40.8487 29.9665C40.6881 29.9554 40.5274 29.9499 40.3667 29.9499C40.1888 29.9499 40.0051 29.9499 39.8272 29.961C39.6493 29.9721 39.4657 29.9832 39.2878 30.0054C39.2763 30.0054 39.2591 30.0109 39.2476 30.0109C39.305 33.0131 39.8272 35.9099 40.7512 38.629C40.8774 38.6013 40.998 38.568 41.1242 38.5403C41.3423 38.4626 41.5489 38.4182 41.7612 38.3738Z" fill="#267434"/>
<path d="M48.0968 48.3515C48.3494 48.3459 48.5961 48.3404 48.8429 48.3293C49.0897 48.3182 49.3422 48.3015 49.5889 48.2849C49.8357 48.2627 50.0825 48.2405 50.3292 48.2127C50.576 48.185 50.8228 48.1461 51.0695 48.1073C51.3163 48.0685 51.5573 48.0185 51.8041 47.9686C51.9591 47.9353 52.1083 47.902 52.2632 47.8631C52.4124 47.8243 52.5674 47.7854 52.7166 47.741C52.8658 47.6966 53.015 47.6522 53.1642 47.6079C53.3134 47.5635 53.4626 47.5135 53.6118 47.4636C53.761 47.4136 53.9102 47.3637 54.0537 47.3082C54.2029 47.2527 54.3464 47.2028 54.4956 47.1417C54.7883 47.0307 55.081 46.9086 55.3679 46.7865C55.6548 46.6645 55.9475 46.5368 56.2345 46.4092C56.5214 46.2816 56.8083 46.1484 57.0953 46.0096C57.6692 45.7377 58.2373 45.4658 58.8054 45.1883C59.0924 45.0496 59.3793 44.9164 59.6663 44.7777C59.9532 44.6445 60.2459 44.5113 60.5328 44.3781C60.8255 44.2505 61.1182 44.1229 61.4108 44.0008C61.7035 43.8787 62.0019 43.7622 62.3004 43.6512C62.4496 43.5957 62.5988 43.5402 62.7537 43.4902C62.9029 43.4403 63.0579 43.3848 63.2071 43.3404C63.3563 43.2905 63.5112 43.2461 63.6662 43.2017C63.8211 43.1573 63.9761 43.1129 64.1253 43.074C64.2802 43.0352 64.4352 42.9963 64.5901 42.9575C64.7451 42.9242 64.9 42.8854 65.0607 42.8576C65.2157 42.8243 65.3764 42.7966 65.537 42.7744C65.6977 42.7466 65.8527 42.7244 66.0134 42.7078C66.1396 42.6911 66.2659 42.68 66.3921 42.6634C66.5184 42.6523 66.6446 42.6412 66.7709 42.6301C66.8971 42.619 67.0234 42.6134 67.1439 42.6079C67.2702 42.6023 67.3964 42.5968 67.5169 42.5968C67.7694 42.5912 68.0162 42.5912 68.263 42.6023C68.5097 42.6079 68.7622 42.6245 69.009 42.6412C69.2558 42.6578 69.5083 42.68 69.7551 42.7078C70.0018 42.7355 70.2486 42.7633 70.5011 42.7966C70.7479 42.8299 70.9946 42.8687 71.2414 42.9076C71.4882 42.9464 71.7349 42.9908 71.9817 43.0352C72.2285 43.0796 72.4752 43.1295 72.722 43.1795C72.9688 43.2294 73.2155 43.2794 73.4623 43.3349C73.9559 43.4403 74.4437 43.5457 74.9372 43.6567C75.425 43.7622 75.9185 43.8731 76.4063 43.973C76.6531 44.023 76.8941 44.0729 77.1409 44.1173C77.3877 44.1617 77.6287 44.2061 77.8754 44.2505C78.0706 44.2838 78.26 44.3171 78.4551 44.3448C78.6502 44.3726 78.8396 44.4003 79.0347 44.4281C79.2298 44.4558 79.4192 44.478 79.6143 44.5002C79.8094 44.5224 80.0045 44.5446 80.1939 44.5613C80.389 44.5779 80.5842 44.6001 80.7793 44.6112C80.9744 44.6279 81.1695 44.639 81.3646 44.6556C81.5598 44.6667 81.7549 44.6778 81.95 44.6889C82.1451 44.7 82.3402 44.7055 82.5354 44.7111C82.7305 44.7166 82.9256 44.7222 83.1207 44.7222C83.3158 44.7222 83.5109 44.7277 83.7061 44.7222C83.9012 44.7222 84.0963 44.7166 84.2914 44.7166C84.4865 44.7111 84.6817 44.7055 84.8768 44.7C85.0719 44.6944 85.267 44.6833 85.4621 44.6722C85.6573 44.6612 85.8524 44.6501 86.0475 44.6334C86.2426 44.6168 86.4377 44.6057 86.6329 44.5835C86.828 44.5668 87.0231 44.5446 87.2182 44.5224C87.4133 44.5002 87.6085 44.478 87.7978 44.4558C87.9929 44.4336 88.1823 44.4059 88.3774 44.3781C88.5726 44.3504 88.7619 44.3226 88.9571 44.2893C89.1522 44.256 89.3416 44.2283 89.5367 44.1895C89.7261 44.1562 89.9212 44.1173 90.1106 44.084C90.2999 44.0452 90.4951 44.0063 90.6844 43.9675C90.8738 43.9286 91.0632 43.8842 91.2526 43.8398C91.442 43.7955 91.6313 43.7511 91.8207 43.7011C92.0101 43.6512 92.1995 43.6068 92.3889 43.5513C92.5782 43.5013 92.7619 43.4458 92.9513 43.3959C93.1406 43.3404 93.3243 43.2849 93.5137 43.2294C93.5424 43.2183 93.5711 43.2128 93.5998 43.2017C93.3128 42.336 92.9455 41.498 92.3372 40.8155C91.6772 40.0718 90.7877 39.5669 89.8753 39.1451C88.9628 38.7233 88.0159 38.3737 87.1551 37.8632C85.8294 37.0863 84.7505 35.9764 83.5913 34.9775C83.4937 35.0164 83.3904 35.0497 83.2929 35.0885C83.0461 35.1884 82.8051 35.2939 82.5698 35.4048C82.3288 35.5158 82.0935 35.6324 81.8639 35.7544C81.7491 35.8155 81.6344 35.8765 81.5196 35.9431C81.4048 36.0097 81.29 36.0708 81.181 36.1374C81.0662 36.2039 80.9572 36.2705 80.8424 36.3427C80.7334 36.4148 80.6186 36.4814 80.5096 36.5536C80.3833 36.6368 80.2513 36.7256 80.1251 36.8144C79.9988 36.9032 79.8726 36.992 79.7463 37.0863C79.4938 37.2694 79.2413 37.4525 78.9888 37.6412C78.7363 37.8244 78.478 38.0075 78.214 38.1851C78.082 38.2739 77.9501 38.3626 77.8181 38.4459C77.6861 38.5291 77.5483 38.6124 77.4106 38.6956C77.2729 38.7788 77.1294 38.8565 76.9859 38.9287C76.8425 39.0008 76.6933 39.073 76.5441 39.1395C76.3948 39.2061 76.2456 39.2672 76.0907 39.3227C75.9357 39.3782 75.7808 39.4337 75.6258 39.4781C75.5455 39.5003 75.4709 39.5225 75.3906 39.5391C75.3102 39.5613 75.2299 39.5779 75.1495 39.5946C75.0692 39.6112 74.9888 39.6279 74.9085 39.639C74.8282 39.6501 74.7478 39.6612 74.6675 39.6723C74.5871 39.6834 74.5068 39.6889 74.4207 39.6945C74.3403 39.7 74.26 39.7 74.1739 39.7056C74.0936 39.7056 74.0075 39.7056 73.9272 39.7C73.8468 39.6945 73.7607 39.6889 73.6804 39.6834C73.6115 39.6778 73.5427 39.6667 73.4681 39.6556C73.3992 39.6445 73.3303 39.6334 73.2615 39.6223C73.1237 39.5946 72.9917 39.5613 72.854 39.528C72.722 39.4892 72.59 39.4503 72.458 39.4004C72.326 39.356 72.1998 39.3005 72.0735 39.245C71.9473 39.1895 71.821 39.134 71.7005 39.073C71.5743 39.0119 71.4537 38.9453 71.3332 38.8843C71.2127 38.8177 71.0922 38.7511 70.9774 38.679C70.8626 38.6068 70.7421 38.5402 70.6274 38.4681C70.3978 38.3238 70.174 38.1795 69.9502 38.0352C69.7264 37.8909 69.5025 37.7467 69.273 37.6079C69.1582 37.5413 69.0492 37.4692 68.9344 37.4082C68.8196 37.3416 68.7049 37.2805 68.5901 37.2195C68.4753 37.1584 68.3605 37.1029 68.24 37.0474C68.1195 36.992 68.0047 36.942 67.8842 36.8921C67.7637 36.8421 67.6432 36.8033 67.5227 36.7589C67.4022 36.72 67.2759 36.6812 67.1496 36.6479C67.0234 36.6146 66.8971 36.5868 66.7709 36.5591C66.6446 36.5314 66.5184 36.5092 66.3864 36.4925C66.2601 36.4759 66.1281 36.4592 66.0019 36.4481C65.8699 36.437 65.7436 36.4259 65.6116 36.4259C65.4797 36.4204 65.3534 36.4204 65.2214 36.4204C65.0894 36.4204 64.9632 36.4259 64.8312 36.437C64.6992 36.4481 64.5729 36.4592 64.4409 36.4703C64.3147 36.487 64.1827 36.5036 64.0564 36.5258C63.9302 36.548 63.7982 36.5702 63.6719 36.5979C63.5457 36.6257 63.4194 36.6534 63.2932 36.6867C63.1669 36.72 63.0407 36.7533 62.9144 36.7922C62.7882 36.831 62.6676 36.8699 62.5414 36.9143C62.4209 36.9587 62.2946 37.0031 62.1741 37.0474C62.0536 37.0918 61.9331 37.1418 61.8126 37.1973C61.7035 37.2417 61.6002 37.2916 61.4969 37.3416C61.3936 37.3915 61.2846 37.4414 61.1813 37.4969C60.9747 37.6024 60.7624 37.7134 60.5558 37.8244C60.1426 38.0519 59.7294 38.285 59.3162 38.518C59.1096 38.6346 58.8973 38.7455 58.6849 38.8565C58.4726 38.9675 58.2602 39.073 58.0422 39.1728C57.9331 39.2228 57.8241 39.2727 57.7151 39.3171C57.606 39.3615 57.4913 39.4059 57.3822 39.4503C57.2674 39.4947 57.1584 39.5336 57.0436 39.5724C56.9289 39.6112 56.8141 39.6445 56.6936 39.6778C56.5788 39.7111 56.464 39.7389 56.3492 39.7666C56.2345 39.7944 56.1197 39.8166 56.0049 39.8388C55.8901 39.861 55.7754 39.8776 55.6548 39.8943C55.5401 39.9109 55.4195 39.9276 55.3048 39.9387C55.19 39.9498 55.0695 39.9609 54.9547 39.9664C54.8399 39.972 54.7194 39.9831 54.6046 39.9831C54.4841 39.9886 54.3693 39.9886 54.2488 39.9886C54.1283 39.9886 54.0135 39.9886 53.893 39.9831C53.6577 39.9775 53.4224 39.9609 53.1872 39.9442C52.9519 39.9276 52.7166 39.8998 52.4813 39.8721C52.246 39.8443 52.0107 39.811 51.7812 39.7722C51.5516 39.7333 51.3163 39.6945 51.0868 39.6501C50.6277 39.5668 50.1743 39.4725 49.7152 39.3782C49.2618 39.2838 48.8085 39.1895 48.3551 39.1007C48.1255 39.0563 47.9017 39.0175 47.6779 38.9786C47.4541 38.9398 47.2245 38.9065 47.0007 38.8732C46.7712 38.8399 46.5474 38.8177 46.3178 38.7955C46.0883 38.7733 45.8645 38.7566 45.6349 38.7455C45.4226 38.7344 45.2102 38.7344 44.9979 38.7344C44.7856 38.7344 44.5732 38.74 44.3666 38.7511C44.1543 38.7622 43.9477 38.7788 43.7354 38.7955C43.523 38.8177 43.3164 38.8399 43.1041 38.8676C42.8975 38.8954 42.6852 38.9287 42.4786 38.962C42.272 38.9953 42.0596 39.0341 41.853 39.0785C41.6464 39.1229 41.4341 39.1673 41.2275 39.2117C41.1529 39.2283 41.0783 39.2505 41.0037 39.2672C42.2318 42.5968 44.0625 45.6489 46.3752 48.3015C46.4498 48.3071 46.5302 48.3071 46.6048 48.3126C46.8573 48.3237 47.1098 48.3293 47.3565 48.3348C47.5976 48.357 47.8501 48.357 48.0968 48.3515Z" fill="#8DC63F"/>
<path d="M82.1681 55.5989C81.95 55.5934 81.7319 55.5823 81.5138 55.5767C81.2958 55.5656 81.0777 55.5545 80.8596 55.5379C80.6415 55.5212 80.4235 55.5046 80.2111 55.4879C79.9931 55.4713 79.775 55.4491 79.5626 55.4213C79.2241 55.3825 78.8797 55.3436 78.5411 55.2937C78.2026 55.2438 77.864 55.1938 77.5254 55.1383C77.1868 55.0828 76.8482 55.0218 76.5153 54.9552C76.1768 54.8886 75.8439 54.822 75.5053 54.7554C75.1725 54.6833 74.8339 54.6111 74.501 54.539C74.1682 54.4668 73.8353 54.3892 73.4967 54.3115C72.831 54.1561 72.1653 54.0007 71.4996 53.8509C71.1668 53.7732 70.8339 53.701 70.5011 53.6289C70.1682 53.5568 69.8354 53.4846 69.5025 53.418C69.1697 53.3514 68.8368 53.2848 68.504 53.2182C68.1711 53.1572 67.8383 53.0962 67.5054 53.0407C67.1726 52.9852 66.8397 52.9352 66.5011 52.8908C66.1683 52.8464 65.8297 52.8076 65.4969 52.7743C65.3304 52.7576 65.164 52.741 64.9918 52.7299C64.8254 52.7133 64.6533 52.7022 64.4868 52.6911C64.3204 52.68 64.1482 52.6744 63.9818 52.6633C63.8154 52.6578 63.6432 52.6522 63.4768 52.6467C63.2759 52.6411 63.0808 52.6411 62.88 52.6411C62.6849 52.6411 62.484 52.6467 62.2889 52.6522C62.0938 52.6578 61.8929 52.6689 61.6978 52.68C61.5027 52.6911 61.3018 52.7022 61.1067 52.7188C60.9116 52.7355 60.7164 52.7521 60.5156 52.7743C60.3205 52.7965 60.1254 52.8187 59.9302 52.8409C59.7351 52.8631 59.54 52.8908 59.3449 52.9186C59.1498 52.9463 58.9546 52.9741 58.7595 53.0074C58.5644 53.0407 58.3693 53.074 58.1742 53.1073C57.979 53.1406 57.7839 53.1794 57.5888 53.2182C57.1986 53.2959 56.8141 53.3792 56.4238 53.4624C56.0393 53.5512 55.6491 53.6455 55.2646 53.7399C54.8801 53.8398 54.4956 53.9397 54.1054 54.0451C53.8586 54.1117 53.6118 54.1838 53.3708 54.256C58.0364 57.1139 63.5571 58.7731 69.4738 58.7731C74.3748 58.7731 79.0002 57.63 83.0977 55.6156C83.0002 55.6156 82.9026 55.6156 82.7993 55.6156C82.6042 55.61 82.3861 55.6045 82.1681 55.5989Z" fill="#8DC63F"/>
<path d="M69.755 0C62.4209 0 55.1785 2.86901 49.939 7.09206C49.9447 7.10316 49.9447 7.10871 49.9505 7.11981C49.9447 7.10871 49.939 7.10316 49.9275 7.09206C48.1026 8.59594 46.4613 10.2996 45.0495 12.1808C45.1127 12.1975 45.1758 12.2141 45.2389 12.2363C45.3766 12.2807 45.5144 12.3251 45.6521 12.375C45.7898 12.425 45.9276 12.4749 46.0596 12.5304C46.1973 12.5859 46.3293 12.6414 46.4613 12.6969C46.5933 12.7524 46.731 12.8134 46.863 12.8745C46.995 12.9355 47.127 12.9966 47.259 13.0632C47.5229 13.1908 47.7812 13.324 48.0394 13.4572C48.2977 13.5959 48.5502 13.7346 48.8027 13.8734C49.0552 14.0176 49.3077 14.1619 49.5545 14.3007C49.8185 14.4505 50.0825 14.6059 50.3464 14.7557C50.6104 14.9055 50.8744 15.0554 51.1441 15.2052C51.4081 15.355 51.6778 15.4938 51.9476 15.6325C52.0796 15.6991 52.2173 15.7712 52.355 15.8378C52.4927 15.9044 52.6247 15.971 52.7625 16.0321C52.9002 16.0931 53.0379 16.1541 53.1757 16.2152C53.3134 16.2762 53.4511 16.3317 53.5889 16.3872C53.7266 16.4427 53.8701 16.4927 54.0078 16.5426C54.1455 16.5925 54.289 16.6369 54.4325 16.6813C54.5759 16.7257 54.7194 16.7646 54.8571 16.8034C55.0006 16.8423 55.1441 16.8756 55.2875 16.9089C55.431 16.9422 55.5802 16.9699 55.7237 16.9921C55.8729 17.0143 56.0164 17.0365 56.1656 17.0531C56.3435 17.0753 56.5214 17.0864 56.6993 17.0975C56.8772 17.1086 57.0551 17.1086 57.233 17.1086C57.4109 17.1086 57.5888 17.1031 57.7667 17.092C57.9446 17.0809 58.1225 17.0698 58.3061 17.0476C58.484 17.0309 58.662 17.0087 58.8456 16.981C59.0235 16.9588 59.2014 16.9255 59.3793 16.8978C59.5572 16.8645 59.7351 16.8312 59.913 16.7979C60.0163 16.7757 60.1253 16.7535 60.2286 16.7313C59.7121 16.1763 59.3334 15.5049 58.9833 14.8334C58.5701 14.0398 58.1799 13.2241 57.5888 12.5415C56.6993 11.5038 55.4368 10.8545 54.1972 10.2496C53.0092 9.66696 51.7926 9.07873 50.8457 8.17974L51.0925 8.02435C56.1426 3.88454 62.6504 1.37624 69.755 1.37624C85.6572 1.37624 98.5982 13.9178 98.5982 29.3338C98.5982 34.9886 96.8421 40.2494 93.8522 44.6556C93.8006 44.4891 93.7489 44.3282 93.6973 44.1617C93.6686 44.1728 93.6399 44.1783 93.617 44.1894C93.4276 44.2449 93.2382 44.306 93.0488 44.3559C92.8594 44.4114 92.67 44.4614 92.4807 44.5169C92.2913 44.5668 92.1019 44.6167 91.9068 44.6667C91.7174 44.7166 91.5223 44.761 91.3329 44.8054C91.1435 44.8498 90.9484 44.8942 90.7533 44.9331C90.5582 44.9719 90.3688 45.0163 90.1737 45.0496C89.9786 45.0884 89.7834 45.1217 89.5941 45.1606C89.3989 45.1939 89.2038 45.2272 89.0087 45.2605C88.8136 45.2938 88.6185 45.3215 88.4233 45.3493C88.2282 45.377 88.0331 45.4048 87.838 45.4269C87.6429 45.4491 87.4477 45.4769 87.2469 45.4935C87.0518 45.5157 86.8567 45.5324 86.6558 45.5546C86.4607 45.5712 86.2598 45.5879 86.0647 45.6045C85.8696 45.6212 85.6687 45.6323 85.4736 45.6434C85.2785 45.6545 85.0776 45.6656 84.8825 45.6711C84.6874 45.6767 84.4865 45.6878 84.2914 45.6878C84.0963 45.6933 83.8954 45.6933 83.7003 45.6933C83.5052 45.6933 83.3043 45.6933 83.1092 45.6933C82.9141 45.6933 82.7132 45.6878 82.5181 45.6822C82.323 45.6767 82.1221 45.6711 81.927 45.66C81.7319 45.6489 81.531 45.6378 81.3359 45.6267C81.1408 45.6156 80.94 45.599 80.7448 45.5823C80.5497 45.5657 80.3489 45.549 80.1537 45.5268C79.9586 45.5102 79.7635 45.488 79.5626 45.4658C79.3675 45.4436 79.1724 45.4159 78.9773 45.3937C78.7822 45.3659 78.5871 45.3382 78.3919 45.3104C78.1968 45.2827 78.0017 45.2494 77.8066 45.2161C77.5598 45.1717 77.313 45.1273 77.0663 45.0829C76.8195 45.0385 76.5727 44.9886 76.326 44.9386C75.8324 44.8387 75.3446 44.7333 74.8511 44.6223C74.3576 44.5169 73.8698 44.4059 73.382 44.306C73.1352 44.256 72.8942 44.2005 72.6474 44.1561C72.4006 44.1062 72.1596 44.0618 71.9128 44.0119C71.6661 43.9675 71.425 43.9231 71.1783 43.8842C70.9315 43.8454 70.6905 43.8065 70.4494 43.7732C70.2084 43.7399 69.9616 43.7067 69.7206 43.6845C69.4796 43.6567 69.2328 43.6345 68.9918 43.6179C68.7508 43.6012 68.504 43.5901 68.263 43.579C68.0219 43.5735 67.7752 43.5679 67.5341 43.5735C67.2931 43.579 67.0463 43.5901 66.8053 43.6068C66.6848 43.6123 66.5643 43.6234 66.438 43.6345C66.3175 43.6456 66.197 43.6623 66.0707 43.6734C65.9158 43.6956 65.7608 43.7122 65.6059 43.7399C65.4509 43.7621 65.296 43.7899 65.1468 43.8232C64.9918 43.8509 64.8426 43.8842 64.6877 43.9231C64.5385 43.9564 64.3835 43.9952 64.2343 44.0341C64.0851 44.0729 63.9359 44.1173 63.781 44.1617C63.6317 44.2061 63.4825 44.2505 63.3333 44.3004C63.1841 44.3504 63.0349 44.4003 62.8857 44.4503C62.7365 44.5002 62.593 44.5557 62.4438 44.6112C62.1511 44.7222 61.8585 44.8332 61.5658 44.9553C61.2731 45.0773 60.9862 45.1994 60.6935 45.3271C60.4065 45.4547 60.1196 45.5879 59.8327 45.7211C59.5457 45.8542 59.2588 45.993 58.9776 46.1262C58.4094 46.3981 57.8413 46.6756 57.2674 46.9475C56.9805 47.0807 56.6935 47.2194 56.4009 47.347C56.1139 47.4802 55.8212 47.6078 55.5286 47.7299C55.2359 47.852 54.9432 47.9741 54.6448 48.0906C54.4956 48.1461 54.3464 48.2016 54.1972 48.2571C54.048 48.3126 53.8988 48.3626 53.7438 48.4125C53.5946 48.4624 53.4396 48.5124 53.2904 48.5623C53.1355 48.6123 52.9863 48.6567 52.8313 48.6955C52.6764 48.7399 52.5214 48.7788 52.3665 48.8176C52.2115 48.8564 52.0566 48.8953 51.8959 48.9286C51.6434 48.9841 51.3966 49.034 51.1441 49.0729C50.8916 49.1173 50.6391 49.1506 50.3866 49.1839C50.1341 49.2171 49.8816 49.2393 49.6291 49.2615C49.3766 49.2837 49.1241 49.3004 48.8716 49.3115C48.6191 49.3226 48.3666 49.3281 48.1083 49.3337C47.8558 49.3392 47.5976 49.3392 47.345 49.3337C47.3221 49.3337 47.2991 49.3337 47.2762 49.3337C48.8658 50.9985 50.6449 52.4913 52.5903 53.7676C52.6133 53.7621 52.642 53.751 52.6649 53.7454C53.0437 53.6344 53.4224 53.529 53.7955 53.4236C54.1742 53.3181 54.553 53.2182 54.9317 53.1183C55.3105 53.0185 55.6893 52.9297 56.0738 52.8409C56.4525 52.7521 56.837 52.6688 57.2215 52.5912C57.606 52.5135 57.9848 52.4413 58.3693 52.3747C58.5587 52.3414 58.7538 52.3081 58.9489 52.2804C59.144 52.2526 59.3334 52.2249 59.5285 52.1971C59.7236 52.1694 59.913 52.1472 60.1081 52.125C60.3032 52.1028 60.4984 52.0806 60.6877 52.064C60.8829 52.0473 61.078 52.0307 61.2731 52.014C61.4682 51.9974 61.6633 51.9863 61.8585 51.9807C62.0536 51.9696 62.2487 51.9641 62.4438 51.9585C62.6389 51.953 62.8341 51.953 63.0349 51.953C63.1841 51.953 63.3391 51.953 63.4883 51.9585C63.6604 51.9641 63.8326 51.9696 64.0048 51.9752C64.1769 51.9807 64.3491 51.9918 64.5213 52.0029C64.6934 52.014 64.8656 52.0251 65.032 52.0418C65.2042 52.0584 65.3706 52.0695 65.5428 52.0862C65.8814 52.1195 66.2199 52.1583 66.5585 52.2083C66.8971 52.2526 67.2357 52.3026 67.5743 52.3581C67.9129 52.4136 68.2457 52.4746 68.5843 52.5357C68.9229 52.5967 69.2558 52.6633 69.5886 52.7354C69.9215 52.802 70.2601 52.8742 70.5929 52.9519C70.9258 53.024 71.2586 53.1017 71.5915 53.1738C72.2572 53.3237 72.9229 53.4846 73.5886 53.6344C73.9214 53.7121 74.2543 53.7843 74.5871 53.862C74.92 53.9341 75.2528 54.0062 75.5857 54.0784C75.9185 54.1505 76.2514 54.2171 76.5842 54.2782C76.9171 54.3447 77.2499 54.4058 77.5885 54.4613C77.9213 54.5168 78.2599 54.5723 78.5928 54.6167C78.9256 54.6666 79.2642 54.7055 79.6028 54.7443C79.8152 54.7665 80.0275 54.7887 80.2456 54.8053C80.4579 54.822 80.676 54.8386 80.8883 54.8553C81.1006 54.8719 81.3187 54.883 81.5311 54.8941C81.7434 54.9052 81.9615 54.9108 82.1738 54.9163C82.3861 54.9219 82.6042 54.9274 82.8165 54.9274C83.0289 54.9274 83.2469 54.9274 83.4593 54.9274C83.6774 54.9274 83.8897 54.9219 84.1078 54.9163C84.234 54.9108 84.366 54.9108 84.4923 54.9052C84.8481 54.7055 85.1924 54.4946 85.5425 54.2837C85.5712 54.2837 85.5998 54.2782 85.6113 54.2782C94.122 49.0784 100.01 39.7999 100.01 29.3505C100.016 13.1575 86.4435 0 69.755 0Z" fill="#267434"/>
<path d="M7.51208 74.8331C7.31122 75.3325 7.03576 75.7321 6.69143 76.0317C6.27824 76.3813 5.80766 76.6144 5.27969 76.7421C4.87798 76.8419 4.33853 76.8919 3.67857 76.8919H2.53081V80.0273H0V70.0329H3.38589C3.713 70.0329 3.98846 70.0384 4.21228 70.0551C4.52217 70.0717 4.80337 70.105 5.06162 70.1494C5.68715 70.2549 6.19216 70.4602 6.57666 70.771C7.38583 71.4369 7.79328 72.3192 7.79328 73.418C7.78754 73.9008 7.69572 74.3725 7.51208 74.8331ZM4.70581 72.4746C4.44183 72.3414 4.04011 72.2748 3.5064 72.2748H2.53081V74.6555H3.60396C4.11472 74.6555 4.49922 74.5778 4.75746 74.428C5.09031 74.2393 5.25674 73.9119 5.25674 73.4513C5.251 72.9852 5.07309 72.6577 4.70581 72.4746Z" fill="#267434"/>
<path d="M17.5779 80.0328L17.0729 78.59H13.4862L12.941 80.0328H10.1003L14.2494 70.0329H16.3326L20.4473 80.0328H17.5779ZM15.3168 73.1461H15.2767L14.2093 76.5645H16.3785L15.3168 73.1461Z" fill="#267434"/>
<path d="M29.7614 79.4724C29.1244 79.9719 28.2693 80.2271 27.1961 80.2271C26.1 80.2271 25.2163 79.9608 24.5506 79.4336C23.8275 78.8676 23.4659 78.074 23.4659 77.0474V76.7255H26.0943C26.0943 77.0973 26.1804 77.4081 26.3468 77.6578C26.5362 77.9464 26.8116 78.0962 27.1732 78.0962C27.8389 78.0962 28.1775 77.7799 28.1775 77.1417C28.1775 76.8531 28.0627 76.6145 27.8274 76.4369C27.7356 76.3648 27.6151 76.2982 27.4716 76.2261L27.2765 76.1317L26.1517 75.6656C25.7787 75.5158 25.4573 75.3659 25.1876 75.2105C24.8719 75.033 24.6022 74.8332 24.3841 74.6223C23.8791 74.1229 23.6266 73.518 23.6266 72.8021C23.6266 71.9198 24.0111 71.1928 24.7744 70.6323C25.4745 70.1162 26.3009 69.861 27.2421 69.861C27.7758 69.861 28.2808 69.9553 28.7686 70.1384C29.2965 70.3438 29.7212 70.6268 30.0368 70.9986C30.4615 71.5091 30.6911 72.1695 30.7198 72.9741H28.1086C28.0053 72.3249 27.6897 71.9975 27.1617 71.9975C26.5591 71.9975 26.255 72.2583 26.255 72.7855C26.255 72.9686 26.2837 73.1129 26.3525 73.2072C26.4558 73.3792 26.7715 73.5901 27.2994 73.8398L28.3898 74.3171C28.7743 74.4836 29.0899 74.6445 29.3425 74.7999C29.6523 74.983 29.9049 75.1828 30.1057 75.3881C30.5706 75.8654 30.8001 76.4591 30.8001 77.1806C30.8001 78.1572 30.4558 78.9341 29.7614 79.4724Z" fill="#267434"/>
<path d="M40.5618 79.4724C39.9248 79.9719 39.0697 80.2271 37.9965 80.2271C36.9004 80.2271 36.0167 79.9608 35.351 79.4336C34.6279 78.8676 34.2663 78.074 34.2663 77.0474V76.7255H36.8947C36.8947 77.0973 36.9808 77.4081 37.1472 77.6578C37.3366 77.9464 37.612 78.0962 37.9736 78.0962C38.6393 78.0962 38.9779 77.7799 38.9779 77.1417C38.9779 76.8531 38.8631 76.6145 38.6278 76.4369C38.536 76.3648 38.4155 76.2982 38.272 76.2261L38.0769 76.1317L36.9521 75.6656C36.5791 75.5158 36.2577 75.3659 35.988 75.2105C35.6723 75.033 35.4026 74.8332 35.1845 74.6223C34.6795 74.1229 34.427 73.518 34.427 72.8021C34.427 71.9198 34.8115 71.1928 35.5748 70.6323C36.2749 70.1162 37.1013 69.861 38.0425 69.861C38.5762 69.861 39.0812 69.9553 39.569 70.1384C40.0969 70.3438 40.5216 70.6268 40.8372 70.9986C41.2619 71.5091 41.4915 72.1695 41.5202 72.9741H38.909C38.8057 72.3249 38.4901 71.9975 37.9621 71.9975C37.3595 71.9975 37.0554 72.2583 37.0554 72.7855C37.0554 72.9686 37.0841 73.1129 37.1529 73.2072C37.2562 73.3792 37.5719 73.5901 38.0998 73.8398L39.1902 74.3171C39.5747 74.4836 39.8903 74.6445 40.1429 74.7999C40.4527 74.983 40.7053 75.1828 40.9061 75.3881C41.371 75.8654 41.6005 76.4591 41.6005 77.1806C41.6005 78.1572 41.2504 78.9341 40.5618 79.4724Z" fill="#267434"/>
<path d="M54.5128 78.7397C53.4511 79.7274 52.1599 80.2269 50.6391 80.2269C49.1585 80.2269 47.8845 79.7385 46.8228 78.7674C45.7382 77.7796 45.1987 76.581 45.1987 75.1603C45.1987 74.4056 45.3307 73.6898 45.6005 73.0238C45.7439 72.6687 45.9677 72.2913 46.2776 71.9029C47.3508 70.5322 48.8084 69.8496 50.6506 69.8496C52.1714 69.8496 53.4569 70.349 54.5128 71.3424C55.5802 72.3413 56.1082 73.5732 56.1082 75.0382C56.1082 76.5033 55.5745 77.7352 54.5128 78.7397ZM52.7051 72.985C52.1656 72.3857 51.4827 72.086 50.6621 72.086C49.8357 72.086 49.1528 72.3746 48.6133 72.9572C48.0968 73.5177 47.8329 74.2003 47.8329 75.005C47.8329 75.8263 48.0968 76.5199 48.6191 77.0915C49.1585 77.6853 49.8472 77.9849 50.685 77.9849C51.4885 77.9849 52.1599 77.6853 52.6993 77.086C53.2101 76.5199 53.4626 75.8374 53.4626 75.0493C53.4683 74.2391 53.2101 73.5566 52.7051 72.985Z" fill="#267434"/>
<path d="M77.996 74.8718C77.996 76.4089 77.4737 77.6853 76.4293 78.7064C75.3791 79.7274 74.0591 80.238 72.481 80.238C70.9545 80.238 69.6575 79.733 68.5901 78.7286C67.5227 77.713 66.989 76.47 66.989 74.9939C66.989 73.5177 67.5341 72.2802 68.6188 71.2924C69.6804 70.3269 70.9832 69.8496 72.5212 69.8496C73.6689 69.8496 74.7306 70.1715 75.7062 70.8207C76.7219 71.4922 77.3819 72.3468 77.6918 73.3845H74.7306C74.2313 72.5244 73.4681 72.0915 72.4523 72.0915C71.6259 72.0915 70.943 72.3746 70.4035 72.9517C69.887 73.5066 69.6231 74.1892 69.6231 74.9994C69.6231 75.8429 69.8756 76.5477 70.3806 77.1082C70.9143 77.7019 71.6087 78.0016 72.4638 78.0016C73.0606 78.0016 73.5714 77.874 74.0075 77.6131C74.4723 77.3301 74.7822 76.925 74.9372 76.3923H71.8554V74.3557H77.9902C77.996 74.4334 78.0017 74.5222 78.0017 74.622V74.8718H77.996Z" fill="#267434"/>
<path d="M88.5726 80.0328L88.0675 78.59H84.4808L83.9356 80.0328H81.0949L85.2441 70.0329H87.3272L91.442 80.0328H88.5726ZM86.3115 73.1461H86.2713L85.2039 76.5645H87.3732L86.3115 73.1461Z" fill="#267434"/>
<path d="M100.24 80.0328L97.8522 76.8087H97.8235V80.0328H95.2927V70.0329H98.5638C98.9081 70.0329 99.1893 70.0384 99.3959 70.0551C99.7058 70.0662 99.9813 70.0995 100.228 70.1383C100.848 70.2382 101.353 70.4436 101.749 70.7488C102.598 71.4091 103.023 72.3192 103.023 73.479C103.023 74.2726 102.799 74.9607 102.346 75.5323C101.875 76.1372 101.244 76.5034 100.446 76.6255L103.252 80.0273H100.24V80.0328ZM99.9813 72.5856C99.6886 72.3803 99.2869 72.2748 98.7876 72.2748H97.8235V75.0606H98.7589C99.9124 75.0606 100.492 74.5834 100.492 73.6289C100.492 73.1683 100.32 72.8187 99.9813 72.5856Z" fill="#267434"/>
<path d="M110.684 80.0328H107.069V70.0329H110.495C111.006 70.0329 111.447 70.0551 111.832 70.105C112.28 70.1605 112.681 70.2549 113.037 70.3825C113.84 70.6655 114.518 71.1705 115.057 71.8975C115.694 72.7521 116.01 73.7843 116.01 75.0051C116.01 78.3569 114.236 80.0328 110.684 80.0328ZM112.773 73.0684C112.337 72.5412 111.7 72.2748 110.856 72.2748H109.709V77.7909H110.839C111.706 77.7909 112.348 77.5356 112.779 77.0251C113.175 76.5589 113.37 75.8986 113.37 75.044C113.37 74.206 113.169 73.5456 112.773 73.0684Z" fill="#267434"/>
<path d="M120.371 80.0328V70.0329H126.116V72.2748H122.902V73.8342H126.012V76.0761H122.902V77.7909H126.116V80.0328H120.371Z" fill="#267434"/>
<path d="M136.968 80.0328L133.031 73.9507L132.997 73.9618L133.071 80.0328H130.54V70.0329H132.819L136.819 76.3203L136.847 76.2926L136.733 70.0329H139.263V80.0328H136.968Z" fill="#267434"/>
<path d="M26.9953 89.3001C26.9953 89.844 26.8117 90.2824 26.4501 90.6098C26.0943 90.9261 25.6352 91.0926 25.0671 91.0981L24.0857 91.1037C24.1718 90.8206 24.2177 90.4433 24.2177 89.9716V88.6453C24.2177 88.218 24.1718 87.8129 24.0857 87.43H24.476C26.1517 87.4355 26.9953 88.0571 26.9953 89.3001ZM26.3698 89.2946C26.3698 88.8395 26.2263 88.4788 25.9279 88.218C25.6467 87.9683 25.2679 87.8406 24.7916 87.8351V90.7097C25.8475 90.6264 26.3698 90.1547 26.3698 89.2946Z" fill="#267434"/>
<path d="M31.8159 87.8795C31.7929 88.0404 31.7814 88.218 31.7814 88.4067V89.6331C31.7814 90.0659 31.7814 90.3156 31.7872 90.3767C31.7986 90.6652 31.8446 90.9094 31.9134 91.1092H31.2535V90.7263C31.0239 90.8872 30.8403 90.9982 30.6853 91.0592C30.5017 91.1314 30.2836 91.1647 30.0311 91.1647C29.5376 91.1647 29.1932 90.9594 28.9981 90.5487C28.8604 90.2601 28.7915 89.8328 28.7915 89.2724C28.7915 89.1725 28.7915 89.0282 28.7973 88.8506C28.803 88.673 28.803 88.5454 28.803 88.4788C28.803 88.1236 28.7571 87.7796 28.671 87.4411H29.5146C29.4285 87.7518 29.3826 88.0959 29.3826 88.4732V89.3778C29.3826 90.2768 29.6925 90.7263 30.3123 90.7263C30.8977 90.7263 31.1903 90.3656 31.1903 89.6497V88.4788C31.1903 88.1236 31.1502 87.7796 31.0641 87.4466H31.9077C31.8675 87.5632 31.8388 87.6908 31.8216 87.8295C31.9134 87.6575 31.9593 87.5354 31.9593 87.4744C31.9593 87.3523 31.8962 87.2524 31.77 87.1636V87.1137L32.0339 86.8473C32.2291 86.9749 32.3266 87.1026 32.3266 87.2191C32.3266 87.3356 32.3037 87.4411 32.2578 87.5354C32.2348 87.5854 32.1774 87.6686 32.0971 87.7851C32.0397 87.8351 31.9651 87.885 31.8733 87.935L31.8159 87.8795Z" fill="#267434"/>
<path d="M36.9693 87.9072C36.9808 87.9127 36.9865 87.9238 36.9923 87.9294C37.3366 88.2845 37.5145 88.734 37.5145 89.2779C37.5145 89.8106 37.3309 90.2601 36.9636 90.6208C36.5963 90.9815 36.1372 91.1591 35.5805 91.1591C35.0066 91.1591 34.5361 90.9815 34.1688 90.6208C33.8015 90.2601 33.6236 89.8051 33.6236 89.2446C33.6236 88.7008 33.8187 88.2513 34.209 87.8961C34.5935 87.5465 35.064 87.3745 35.6322 87.3745C36.1314 87.3745 36.5504 87.5243 36.889 87.8184C36.9808 87.6408 37.0324 87.5187 37.0324 87.4521C37.0324 87.3301 36.9693 87.2302 36.8431 87.1414V87.0914L37.107 86.8251C37.3022 86.9527 37.3997 87.0803 37.3997 87.1969C37.3997 87.3134 37.3768 87.4188 37.3309 87.5132C37.3079 87.5631 37.2505 87.6464 37.1702 87.7629C37.1185 87.8184 37.0497 87.8628 36.9693 87.9072ZM36.889 89.3833C36.889 88.9838 36.7685 88.6286 36.5274 88.3234C36.2634 87.9904 35.9306 87.8239 35.5289 87.8239C35.1444 87.8239 34.8345 87.9516 34.5935 88.2069C34.3639 88.451 34.2434 88.7618 34.2434 89.1392C34.2434 89.5554 34.3639 89.9161 34.6049 90.2213C34.8689 90.5542 35.2075 90.7207 35.6322 90.7207C36.0052 90.7207 36.3151 90.5875 36.5504 90.3212C36.7799 90.0659 36.889 89.7496 36.889 89.3833Z" fill="#267434"/>
<path d="M42.5302 91.1092H41.7784C41.7096 90.9538 41.5604 90.7263 41.3251 90.4155L39.9305 88.5898V89.9383C39.9305 90.4211 39.9764 90.8095 40.0625 91.1092H39.2878C39.3739 90.7873 39.414 90.3989 39.414 89.9383V87.9627L38.9549 87.4355H39.8387C39.942 87.6076 40.0912 87.8351 40.3036 88.1126L41.8875 90.2324V88.673C41.8875 88.1736 41.8416 87.763 41.7555 87.4411H42.5302C42.4441 87.8129 42.3982 88.2291 42.3982 88.6897L42.404 90.0659C42.3982 90.4655 42.4441 90.8151 42.5302 91.1092Z" fill="#267434"/>
<path d="M47.5746 89.2779C47.5115 89.4666 47.4713 89.633 47.4598 89.7773C47.4484 89.8661 47.4484 90.0381 47.4484 90.2934C47.4484 90.5598 47.4656 90.7762 47.5057 90.9427C47.0409 91.087 46.599 91.1591 46.1858 91.1591C45.5947 91.1591 45.1241 90.9982 44.7626 90.6819C44.3896 90.3489 44.2059 89.905 44.2059 89.3389C44.2059 88.7562 44.4011 88.2845 44.7913 87.9183C45.1758 87.5576 45.6693 87.38 46.2719 87.38C46.5646 87.38 46.8859 87.4299 47.236 87.5298V88.1625C46.9032 87.9349 46.5416 87.8239 46.1571 87.8239C45.7439 87.8239 45.4168 87.9738 45.1701 88.2679C44.9462 88.5398 44.8315 88.8839 44.8315 89.289C44.8315 89.6996 44.9348 90.0326 45.1414 90.2934C45.3709 90.5764 45.6923 90.7207 46.0997 90.7207C46.3063 90.7207 46.5646 90.6708 46.863 90.5653V90.0936C46.863 89.7995 46.8171 89.5276 46.731 89.2834H47.5746V89.2779Z" fill="#267434"/>
<path d="M52.0738 88.8173V88.6509C52.0738 88.2236 52.0279 87.8185 51.9418 87.4355H52.3321C54.0135 87.4355 54.8514 88.0571 54.8514 89.3001C54.8514 89.844 54.6678 90.2824 54.3062 90.6098C53.9504 90.9261 53.4913 91.0926 52.9232 91.0981L51.9418 91.1037C52.0279 90.8206 52.0738 90.4433 52.0738 89.9716V89.1669H51.4999L51.6377 88.8173H52.0738V88.8173ZM52.6592 89.1725V90.7097C53.7094 90.6264 54.2316 90.1547 54.2316 89.2946C54.2316 88.8395 54.0881 88.4788 53.7897 88.218C53.5085 87.9683 53.1298 87.8406 52.6534 87.8351V88.8229H53.5487L53.4626 89.1725H52.6592Z" fill="#267434"/>
<path d="M60.3147 89.2779C60.3147 89.8106 60.1311 90.2601 59.7638 90.6208C59.3965 90.9815 58.9374 91.1591 58.3808 91.1591C57.8069 91.1591 57.3363 90.9815 56.969 90.6208C56.6017 90.2601 56.4238 89.8051 56.4238 89.2446C56.4238 88.7008 56.6189 88.2513 57.0092 87.8961C57.3937 87.5465 57.8643 87.3745 58.4324 87.3745C58.9891 87.3745 59.4424 87.5576 59.7982 87.9238C60.1426 88.2846 60.3147 88.734 60.3147 89.2779ZM59.6892 89.3833C59.6892 88.9838 59.5687 88.6286 59.3277 88.3234C59.0637 87.9904 58.7308 87.824 58.3291 87.824C57.9446 87.824 57.6347 87.9516 57.3937 88.2069C57.1641 88.451 57.0436 88.7618 57.0436 89.1392C57.0436 89.5554 57.1641 89.9161 57.4052 90.2213C57.6691 90.5542 58.0077 90.7207 58.4324 90.7207C58.8054 90.7207 59.1153 90.5875 59.3506 90.3212C59.5744 90.0659 59.6892 89.7496 59.6892 89.3833ZM59.0809 87.2191H58.5701L58.375 86.986L58.1742 87.2135H57.6634L58.2602 86.6808H58.5242L59.0809 87.2191Z" fill="#267434"/>
<path d="M65.3247 91.1092H64.5729C64.5041 90.9538 64.3549 90.7263 64.1196 90.4155L62.725 88.5898V89.9383C62.725 90.4211 62.7709 90.8095 62.857 91.1092H62.0823C62.1684 90.7873 62.2085 90.3989 62.2085 89.9383V87.9627L61.7494 87.4355H62.6332C62.7365 87.6076 62.8857 87.8351 63.0981 88.1126L64.682 90.2324V88.673C64.682 88.1736 64.6361 87.763 64.55 87.4411H65.3247C65.2386 87.8129 65.1927 88.2291 65.1927 88.6897L65.1985 90.0659C65.1985 90.4655 65.2386 90.8151 65.3247 91.1092Z" fill="#267434"/>
<path d="M70.3748 89.2779C70.3117 89.4666 70.2715 89.633 70.2601 89.7773C70.2486 89.8661 70.2486 90.0381 70.2486 90.2934C70.2486 90.5598 70.2658 90.7762 70.306 90.9427C69.8411 91.087 69.3992 91.1591 68.986 91.1591C68.395 91.1591 67.9244 90.9982 67.5628 90.6819C67.1898 90.3489 67.0062 89.905 67.0062 89.3389C67.0062 88.7562 67.2013 88.2845 67.5915 87.9183C67.976 87.5576 68.4696 87.38 69.0721 87.38C69.3648 87.38 69.6862 87.4299 70.0362 87.5298V88.1625C69.7034 87.9349 69.3419 87.8239 68.9574 87.8239C68.5442 87.8239 68.2171 87.9738 67.9703 88.2679C67.7465 88.5398 67.6317 88.8839 67.6317 89.289C67.6317 89.6996 67.735 90.0326 67.9416 90.2934C68.1711 90.5764 68.4925 90.7207 68.9 90.7207C69.1066 90.7207 69.3648 90.6708 69.6632 90.5653V90.0936C69.6632 89.7995 69.6173 89.5276 69.5312 89.2834H70.3748V89.2779Z" fill="#267434"/>
<path d="M75.8726 89.4333L75.643 89.911H74.5412L74.501 89.8055L74.7019 89.3556H75.8267L75.8726 89.4333Z" fill="#267434"/>
<path d="M82.1279 88.5232C82.1279 88.9505 81.9672 89.2502 81.6516 89.4222C81.4392 89.5332 81.0834 89.6109 80.5842 89.6386V90.1492C80.5842 90.41 80.6301 90.7263 80.7161 91.1037H79.8725C79.9586 90.7763 80.0045 90.4877 80.0045 90.2324V88.6176C80.0045 88.2125 79.9586 87.8185 79.8725 87.4355H80.7965C81.686 87.4355 82.1279 87.7963 82.1279 88.5232ZM81.5081 88.6009C81.5081 88.3789 81.4507 88.1903 81.3359 88.0404C81.2097 87.8739 81.0318 87.7907 80.8022 87.7907H80.5784V89.3556C80.8826 89.339 81.1006 89.2835 81.2384 89.1891C81.422 89.0726 81.5081 88.8784 81.5081 88.6009Z" fill="#267434"/>
<path d="M86.7706 91.1092H85.927C86.013 90.8151 86.059 90.5765 86.059 90.3822V89.4666H84.4349V89.9383C84.4349 90.349 84.4808 90.7374 84.5669 91.1148H83.7233C83.8093 90.8262 83.8553 90.471 83.8553 90.0382V88.5898C83.8553 88.1514 83.8093 87.7685 83.7233 87.4411H84.5669C84.4808 87.7741 84.4349 88.0737 84.4349 88.3345V89.0116H86.059V88.5343C86.059 88.1681 86.013 87.8018 85.927 87.4411H86.7706C86.6845 87.7574 86.6386 88.107 86.6386 88.501V89.8662C86.6386 90.3545 86.6845 90.7707 86.7706 91.1092Z" fill="#267434"/>
<path d="M91.8035 91.1095H91.1435V90.7266C90.914 90.8875 90.7303 90.9985 90.5754 91.0595C90.3918 91.1317 90.1737 91.165 89.9212 91.165C89.4276 91.165 89.0833 90.9596 88.8882 90.549C88.7505 90.2604 88.6816 89.8331 88.6816 89.2726C88.6816 89.1727 88.6816 89.0285 88.6873 88.8509C88.6931 88.6733 88.6931 88.5457 88.6931 88.4791C88.6931 88.1239 88.6472 87.7799 88.5611 87.4413H89.4047C89.3186 87.7521 89.2727 88.0962 89.2727 88.4735V89.3781C89.2727 90.2771 89.5826 90.7266 90.2024 90.7266C90.7877 90.7266 91.0804 90.3658 91.0804 89.65V88.4791C91.0804 88.1239 91.0402 87.7799 90.9542 87.4469H91.7978C91.7117 87.7188 91.6658 88.0407 91.6658 88.4125V89.6389C91.6658 90.0717 91.6658 90.3214 91.6715 90.3825C91.6887 90.6655 91.7346 90.9097 91.8035 91.1095ZM90.0761 87.0473C90.0991 86.9918 90.1335 86.9031 90.1794 86.7754C90.2253 86.6478 90.2483 86.5479 90.254 86.4758L90.2655 86.387H90.9197L90.8336 86.4869C90.7648 86.559 90.6959 86.6644 90.6098 86.7865C90.5639 86.8642 90.5065 86.9585 90.4377 87.0695L90.3803 87.175H90.013L90.0761 87.0473Z" fill="#267434"/>
<path d="M100.217 91.8084C100.085 91.8472 99.9698 91.8639 99.8665 91.8639C99.6083 91.8639 99.35 91.7862 99.109 91.6364C98.954 91.5365 98.7474 91.37 98.4949 91.1314C98.3342 91.148 98.1965 91.1591 98.076 91.1591C97.5251 91.1591 97.0602 90.9704 96.693 90.5986C96.3314 90.2324 96.1535 89.7773 96.1535 89.2446C96.1535 88.7007 96.3486 88.2512 96.7331 87.8961C97.1119 87.552 97.5825 87.38 98.1506 87.38C98.7073 87.38 99.1664 87.5631 99.5222 87.9238C99.8665 88.279 100.044 88.7285 100.044 89.2723C100.044 89.966 99.7632 90.4932 99.2008 90.8539C99.3902 91.1147 99.5337 91.2978 99.6484 91.4033C99.7747 91.5365 99.9698 91.6696 100.217 91.8084ZM99.4131 89.3944C99.4131 88.9838 99.2926 88.6286 99.0573 88.3234C98.7991 87.9904 98.4605 87.8239 98.053 87.8239C97.6628 87.8239 97.3529 87.9516 97.1119 88.2069C96.8881 88.451 96.7733 88.7673 96.7733 89.1502C96.7733 89.5553 96.8938 89.9161 97.1291 90.2213C97.3931 90.5542 97.7259 90.7207 98.1334 90.7207C98.5121 90.7207 98.822 90.5931 99.0631 90.3323C99.2984 90.077 99.4131 89.7662 99.4131 89.3944Z" fill="#267434"/>
<path d="M104.934 91.1092H104.274V90.7263C104.044 90.8872 103.861 90.9982 103.706 91.0593C103.522 91.1314 103.304 91.1647 103.052 91.1647C102.558 91.1647 102.214 90.9594 102.019 90.5487C101.881 90.2602 101.812 89.8329 101.812 89.2724C101.812 89.1725 101.812 89.0282 101.818 88.8506C101.823 88.6731 101.823 88.5454 101.823 88.4788C101.823 88.1237 101.778 87.7796 101.691 87.4411H102.535C102.449 87.7519 102.403 88.0959 102.403 88.4733V89.3778C102.403 90.2768 102.713 90.7263 103.333 90.7263C103.918 90.7263 104.211 90.3656 104.211 89.6497V88.4788C104.211 88.1237 104.171 87.7796 104.085 87.4466H104.928C104.842 87.7186 104.796 88.0404 104.796 88.4122V89.6386C104.796 90.0715 104.796 90.3212 104.802 90.3822C104.819 90.6653 104.859 90.9094 104.934 91.1092Z" fill="#267434"/>
<path d="M110.529 89.2779C110.529 89.8106 110.346 90.2601 109.978 90.6208C109.611 90.9815 109.152 91.1591 108.595 91.1591C108.021 91.1591 107.551 90.9815 107.183 90.6208C106.816 90.2601 106.638 89.8051 106.638 89.2446C106.638 88.7008 106.833 88.2513 107.224 87.8961C107.608 87.5465 108.079 87.3745 108.647 87.3745C109.204 87.3745 109.657 87.5576 110.013 87.9238C110.357 88.2846 110.529 88.7341 110.529 89.2779ZM109.904 89.3833C109.904 88.9838 109.783 88.6286 109.542 88.3234C109.278 87.9904 108.945 87.824 108.544 87.824C108.159 87.824 107.849 87.9516 107.608 88.2069C107.379 88.451 107.258 88.7618 107.258 89.1392C107.258 89.5554 107.379 89.9161 107.62 90.2213C107.884 90.5542 108.222 90.7207 108.647 90.7207C109.02 90.7207 109.33 90.5875 109.565 90.3212C109.795 90.0659 109.904 89.7496 109.904 89.3833ZM109.295 87.2191H108.785L108.589 86.986L108.389 87.2135H107.878L108.475 86.6808H108.739L109.295 87.2191ZM109.094 86.7807C109.117 86.7252 109.152 86.6364 109.198 86.5088C109.244 86.3811 109.267 86.2812 109.272 86.2091L109.284 86.1259H109.938L109.852 86.2257C109.783 86.3034 109.714 86.4033 109.628 86.5254C109.582 86.6031 109.525 86.6974 109.456 86.8084L109.399 86.9139H109.031L109.094 86.7807Z" fill="#267434"/>
<path d="M115.178 90.2768L115.149 90.8872C114.713 91.0703 114.317 91.1647 113.967 91.1647C113.41 91.1647 112.957 90.9926 112.607 90.6541C112.257 90.3156 112.079 89.8772 112.079 89.3389C112.079 88.7618 112.268 88.2901 112.647 87.9294C113.026 87.5687 113.513 87.3856 114.11 87.3856C114.414 87.3856 114.736 87.4355 115.086 87.5354V88.1625C114.718 87.9405 114.368 87.8295 114.041 87.8295C113.622 87.8295 113.29 87.9738 113.043 88.2624C112.813 88.5287 112.698 88.8672 112.698 89.289C112.698 89.6996 112.807 90.0326 113.02 90.2934C113.255 90.582 113.576 90.7263 113.984 90.7263C114.357 90.7207 114.753 90.5709 115.178 90.2768Z" fill="#267434"/>
</svg>
